<?xml version="1.0" standalone="no"?>
<!DOCTYPE svg PUBLIC "-//W3C//DTD SVG 20010904//EN"
 "http://www.w3.org/TR/2001/REC-SVG-20010904/DTD/svg10.dtd">
<svg version="1.0" xmlns="http://www.w3.org/2000/svg"
 width="520.000000pt" height="520.000000pt" viewBox="0 0 520.000000 520.000000"
 preserveAspectRatio="xMidYMid meet">
<metadata>
Created by potrace 1.14, written by Peter Selinger 2001-2017
</metadata>
<g transform="translate(0.000000,520.000000) scale(0.100000,-0.100000)"
fill="#000000" stroke="none">
<path d="M2544 4040 c-5 -5 -35 -11 -67 -14 -32 -2 -61 -6 -64 -10 -4 -3 -15
-6 -26 -6 -22 0 -47 -7 -167 -49 -194 -66 -362 -173 -517 -329 -40 -40 -73
-67 -74 -60 0 7 -3 22 -5 33 -3 11 -7 52 -9 90 -6 95 -8 103 -33 120 -19 14
-22 14 -34 -7 -16 -31 -19 -44 -17 -103 4 -240 0 -298 -24 -322 -11 -11 -13
22 -14 199 -1 192 -2 213 -19 225 -21 15 -24 16 -44 3 -13 -8 -16 -54 -20
-282 -4 -234 -7 -273 -20 -273 -13 0 -15 38 -17 269 -2 221 -5 272 -17 284
-18 19 -44 9 -55 -20 -4 -13 -7 -123 -5 -246 2 -216 -7 -315 -26 -281 -5 9
-10 133 -12 276 -2 144 -6 265 -10 268 -8 8 -56 10 -63 3 -3 -2 -7 -40 -10
-84 -6 -76 -11 -132 -21 -219 -5 -40 -5 -291 0 -330 1 -11 5 -25 9 -32 4 -6 9
-28 13 -49 3 -22 12 -43 20 -47 8 -4 14 -15 14 -22 0 -8 5 -15 10 -15 6 0 10
-7 10 -15 0 -8 5 -15 10 -15 6 0 10 -6 10 -14 0 -7 6 -19 13 -25 8 -6 22 -37
31 -69 15 -50 17 -86 13 -262 -3 -113 -8 -236 -11 -275 -3 -38 -8 -97 -11
-130 -11 -127 -23 -422 -21 -475 2 -30 7 -84 10 -120 4 -36 9 -87 12 -114 9
-86 49 -146 98 -146 56 0 73 10 92 53 10 23 21 44 24 47 6 6 9 38 13 120 1 30
4 60 7 65 3 6 5 70 5 143 0 90 3 132 10 132 13 0 55 -46 55 -59 0 -10 197
-211 249 -253 18 -16 39 -28 47 -28 8 0 14 -4 14 -9 0 -11 100 -74 118 -74 6
0 12 -3 12 -7 0 -11 147 -75 240 -105 93 -29 231 -55 298 -55 23 0 42 -4 42
-9 0 -4 34 -9 76 -10 51 -1 74 1 69 8 -4 7 10 11 38 11 98 0 405 75 415 101 2
5 10 9 18 9 31 0 229 115 279 162 17 15 36 28 43 28 7 0 10 5 7 10 -3 6 -1 10
4 10 15 0 193 181 210 213 8 14 27 39 44 54 l29 28 -7 -80 c-7 -79 -8 -316 -2
-345 24 -105 65 -160 119 -160 42 0 88 45 88 86 0 14 4 23 10 19 7 -4 10 383
10 1155 l0 1161 -23 25 c-20 21 -27 23 -48 15 -32 -14 -48 -28 -85 -76 -31
-40 -84 -145 -101 -199 -8 -26 -43 -47 -43 -27 0 11 -76 96 -124 140 -21 20
-51 47 -65 61 -27 26 -60 51 -147 112 -55 39 -223 122 -266 133 -16 4 -28 10
-28 14 0 4 -6 8 -12 8 -7 0 -33 6 -58 12 -95 25 -202 44 -257 45 -12 0 -19 4
-17 8 3 4 -45 8 -105 8 -67 0 -111 -4 -111 -10 0 -5 -5 -10 -11 -10 -5 0 -7 5
-4 10 8 13 2 13 -11 0z"/>
</g>
</svg>
